<!-- SPDX-License-Identifier: Apache-2.0 -->
<svg xmlns="http://www.w3.org/2000/svg" height="48px" viewBox="0 -960 960 960" width="48px" fill="#1f1f1f"><path d="M200-120v-665q0-24 18-42t42-18h440q24 0 42 18t18 42v665L480-240 200-120Zm60-91 220-93 220 93v-574H260v574Zm0-574h440-440Z"/><path transform="translate(263.1 -297.6) scale(0.45)" stroke="#1f1f1f" stroke-width="73" stroke-linejoin="round" stroke-linecap="round" d="M167-160v-60h130l-15-12q-64-51-93-111t-29-134q0-106 62.5-190.5T387-784v62q-75 29-121 96.5T220-477q0 63 23.5 109.5T307-287l30 21v-124h60v230H167Zm407-15v-63q76-29 121-96.5T740-483q0-48-23.5-97.5T655-668l-29-26v124h-60v-230h230v60H665l15 14q60 56 90 120t30 123q0 106-62 191T574-175Z"/></svg>
